{
	"asset":{
		"generator":"Khronos glTF Blender I/O v4.5.48",
		"version":"2.0"
	},
	"extensionsUsed":[
		"KHR_materials_transmission"
	],
	"scene":0,
	"scenes":[
		{
			"name":"Scene",
			"nodes":[
				8
			]
		}
	],
	"nodes":[
		{
			"mesh":0,
			"name":"Object_45"
		},
		{
			"children":[
				0
			],
			"name":"LOD_A_HEADLIGHT_UP_mm_ext_16",
			"rotation":[
				-1,
				0,
				0,
				2.186525875913503e-07
			]
		},
		{
			"mesh":1,
			"name":"Object_29"
		},
		{
			"children":[
				2
			],
			"name":"LOD_A_HEADLIGHT_UP_mm_lights_8",
			"rotation":[
				-1,
				0,
				0,
				2.186525875913503e-07
			]
		},
		{
			"mesh":2,
			"name":"Object_91"
		},
		{
			"children":[
				4
			],
			"name":"LOD_A_HEADLIGHT_UP_mm_misc_39",
			"rotation":[
				-1,
				0,
				0,
				2.186525875913503e-07
			]
		},
		{
			"mesh":3,
			"name":"Object_124"
		},
		{
			"children":[
				6
			],
			"name":"LOD_A_HEADLIGHT_UP_mm_windows_54",
			"rotation":[
				-1,
				0,
				0,
				2.186525875913503e-07
			]
		},
		{
			"children":[
				1,
				3,
				5,
				7
			],
			"name":"Sketchfab_model",
			"rotation":[
				-0.70710688829422,
				0,
				0,
				0.7071066498756409
			]
		}
	],
	"animations":[
		{
			"channels":[
				{
					"sampler":0,
					"target":{
						"node":0,
						"path":"translation"
					}
				},
				{
					"sampler":1,
					"target":{
						"node":0,
						"path":"rotation"
					}
				}
			],
			"name":"Object_45Action",
			"samplers":[
				{
					"input":16,
					"interpolation":"LINEAR",
					"output":17
				},
				{
					"input":16,
					"interpolation":"LINEAR",
					"output":18
				}
			]
		},
		{
			"channels":[
				{
					"sampler":0,
					"target":{
						"node":2,
						"path":"translation"
					}
				},
				{
					"sampler":1,
					"target":{
						"node":2,
						"path":"rotation"
					}
				}
			],
			"name":"Object_29Action",
			"samplers":[
				{
					"input":16,
					"interpolation":"LINEAR",
					"output":19
				},
				{
					"input":16,
					"interpolation":"LINEAR",
					"output":20
				}
			]
		},
		{
			"channels":[
				{
					"sampler":0,
					"target":{
						"node":4,
						"path":"translation"
					}
				},
				{
					"sampler":1,
					"target":{
						"node":4,
						"path":"rotation"
					}
				}
			],
			"name":"Object_91Action",
			"samplers":[
				{
					"input":16,
					"interpolation":"LINEAR",
					"output":19
				},
				{
					"input":16,
					"interpolation":"LINEAR",
					"output":20
				}
			]
		},
		{
			"channels":[
				{
					"sampler":0,
					"target":{
						"node":7,
						"path":"translation"
					}
				},
				{
					"sampler":1,
					"target":{
						"node":7,
						"path":"rotation"
					}
				}
			],
			"name":"LOD_A_HEADLIGHT_UP_mm_windows_54Action",
			"samplers":[
				{
					"input":21,
					"interpolation":"LINEAR",
					"output":22
				},
				{
					"input":21,
					"interpolation":"LINEAR",
					"output":23
				}
			]
		},
		{
			"channels":[
				{
					"sampler":0,
					"target":{
						"node":6,
						"path":"translation"
					}
				},
				{
					"sampler":1,
					"target":{
						"node":6,
						"path":"rotation"
					}
				}
			],
			"name":"Object_124Action",
			"samplers":[
				{
					"input":16,
					"interpolation":"LINEAR",
					"output":19
				},
				{
					"input":16,
					"interpolation":"LINEAR",
					"output":20
				}
			]
		}
	],
	"materials":[
		{
			"doubleSided":true,
			"name":"Vehicle_Exterior_mm_ext",
			"pbrMetallicRoughness":{
				"baseColorTexture":{
					"index":0
				},
				"metallicFactor":0,
				"roughnessFactor":0
			}
		},
		{
			"doubleSided":true,
			"name":"Vehicle_Exterior_mm_lights",
			"pbrMetallicRoughness":{
				"baseColorTexture":{
					"index":1
				},
				"metallicFactor":0,
				"roughnessFactor":0.5
			}
		},
		{
			"doubleSided":true,
			"name":"Vehicle_Exterior_mm_misc",
			"pbrMetallicRoughness":{
				"baseColorTexture":{
					"index":2
				},
				"metallicFactor":0,
				"roughnessFactor":0.5
			}
		},
		{
			"alphaMode":"BLEND",
			"doubleSided":true,
			"extensions":{
				"KHR_materials_transmission":{
					"transmissionFactor":1
				}
			},
			"name":"Vehicle_Exterior_mm_windows",
			"pbrMetallicRoughness":{
				"baseColorFactor":[
					0.800000011920929,
					0.800000011920929,
					0.800000011920929,
					0.25
				],
				"metallicFactor":0,
				"roughnessFactor":0
			}
		}
	],
	"meshes":[
		{
			"name":"Object_25",
			"primitives":[
				{
					"attributes":{
						"POSITION":0,
						"NORMAL":1,
						"TEXCOORD_0":2
					},
					"indices":3,
					"material":0
				}
			]
		},
		{
			"name":"Object_17",
			"primitives":[
				{
					"attributes":{
						"POSITION":4,
						"NORMAL":5,
						"TEXCOORD_0":6
					},
					"indices":7,
					"material":1
				}
			]
		},
		{
			"name":"Object_48",
			"primitives":[
				{
					"attributes":{
						"POSITION":8,
						"NORMAL":9,
						"TEXCOORD_0":10
					},
					"indices":11,
					"material":2
				}
			]
		},
		{
			"name":"Object_66",
			"primitives":[
				{
					"attributes":{
						"POSITION":12,
						"NORMAL":13,
						"TEXCOORD_0":14
					},
					"indices":15,
					"material":3
				}
			]
		}
	],
	"textures":[
		{
			"sampler":0,
			"source":0
		},
		{
			"sampler":0,
			"source":1
		},
		{
			"sampler":0,
			"source":2
		}
	],
	"images":[
		{
			"mimeType":"image/png",
			"name":"Vehicle_Exterior_mm_ext_baseColor",
			"uri":"textures/Vehicle_Exterior_mm_ext_baseColor.png"
		},
		{
			"mimeType":"image/png",
			"name":"Vehicle_Exterior_mm_lights_baseColor",
			"uri":"textures/Vehicle_Exterior_mm_lights_baseColor.png"
		},
		{
			"mimeType":"image/png",
			"name":"Vehicle_Exterior_mm_misc_baseColor",
			"uri":"textures/Vehicle_Exterior_mm_misc_baseColor.png"
		}
	],
	"accessors":[
		{
			"bufferView":0,
			"componentType":5126,
			"count":610,
			"max":[
				0.7269999980926514,
				1.9198999404907227,
				-0.512499988079071
			],
			"min":[
				-0.7269999980926514,
				1.638200044631958,
				-0.7990000247955322
			],
			"type":"VEC3"
		},
		{
			"bufferView":1,
			"componentType":5126,
			"count":610,
			"type":"VEC3"
		},
		{
			"bufferView":2,
			"componentType":5126,
			"count":610,
			"type":"VEC2"
		},
		{
			"bufferView":3,
			"componentType":5123,
			"count":1809,
			"type":"SCALAR"
		},
		{
			"bufferView":4,
			"componentType":5126,
			"count":100,
			"max":[
				0.6651999950408936,
				1.8945000171661377,
				-0.6079000234603882
			],
			"min":[
				0.4772999882698059,
				1.7948999404907227,
				-0.7340999841690063
			],
			"type":"VEC3"
		},
		{
			"bufferView":5,
			"componentType":5126,
			"count":100,
			"type":"VEC3"
		},
		{
			"bufferView":6,
			"componentType":5126,
			"count":100,
			"type":"VEC2"
		},
		{
			"bufferView":7,
			"componentType":5123,
			"count":345,
			"type":"SCALAR"
		},
		{
			"bufferView":8,
			"componentType":5126,
			"count":612,
			"max":[
				0.7009000182151794,
				1.9285000562667847,
				-0.534600019454956
			],
			"min":[
				-0.7009000182151794,
				1.791700005531311,
				-0.7807000279426575
			],
			"type":"VEC3"
		},
		{
			"bufferView":9,
			"componentType":5126,
			"count":612,
			"type":"VEC3"
		},
		{
			"bufferView":10,
			"componentType":5126,
			"count":612,
			"type":"VEC2"
		},
		{
			"bufferView":11,
			"componentType":5123,
			"count":1836,
			"type":"SCALAR"
		},
		{
			"bufferView":12,
			"componentType":5126,
			"count":158,
			"max":[
				0.6651999950408936,
				1.8975000381469727,
				-0.6104999780654907
			],
			"min":[
				-0.6651999950408936,
				1.8467999696731567,
				-0.7382000088691711
			],
			"type":"VEC3"
		},
		{
			"bufferView":13,
			"componentType":5126,
			"count":158,
			"type":"VEC3"
		},
		{
			"bufferView":14,
			"componentType":5126,
			"count":158,
			"type":"VEC2"
		},
		{
			"bufferView":15,
			"componentType":5123,
			"count":486,
			"type":"SCALAR"
		},
		{
			"bufferView":16,
			"componentType":5126,
			"count":24,
			"max":[
				1
			],
			"min":[
				0.041666666666666664
			],
			"type":"SCALAR"
		},
		{
			"bufferView":17,
			"componentType":5126,
			"count":24,
			"type":"VEC3"
		},
		{
			"bufferView":18,
			"componentType":5126,
			"count":24,
			"type":"VEC4"
		},
		{
			"bufferView":19,
			"componentType":5126,
			"count":24,
			"type":"VEC3"
		},
		{
			"bufferView":20,
			"componentType":5126,
			"count":24,
			"type":"VEC4"
		},
		{
			"bufferView":21,
			"componentType":5126,
			"count":1,
			"max":[
				0.041666666666666664
			],
			"min":[
				0.041666666666666664
			],
			"type":"SCALAR"
		},
		{
			"bufferView":22,
			"componentType":5126,
			"count":1,
			"type":"VEC3"
		},
		{
			"bufferView":23,
			"componentType":5126,
			"count":1,
			"type":"VEC4"
		}
	],
	"bufferViews":[
		{
			"buffer":0,
			"byteLength":7320,
			"byteOffset":0,
			"target":34962
		},
		{
			"buffer":0,
			"byteLength":7320,
			"byteOffset":7320,
			"target":34962
		},
		{
			"buffer":0,
			"byteLength":4880,
			"byteOffset":14640,
			"target":34962
		},
		{
			"buffer":0,
			"byteLength":3618,
			"byteOffset":19520,
			"target":34963
		},
		{
			"buffer":0,
			"byteLength":1200,
			"byteOffset":23140,
			"target":34962
		},
		{
			"buffer":0,
			"byteLength":1200,
			"byteOffset":24340,
			"target":34962
		},
		{
			"buffer":0,
			"byteLength":800,
			"byteOffset":25540,
			"target":34962
		},
		{
			"buffer":0,
			"byteLength":690,
			"byteOffset":26340,
			"target":34963
		},
		{
			"buffer":0,
			"byteLength":7344,
			"byteOffset":27032,
			"target":34962
		},
		{
			"buffer":0,
			"byteLength":7344,
			"byteOffset":34376,
			"target":34962
		},
		{
			"buffer":0,
			"byteLength":4896,
			"byteOffset":41720,
			"target":34962
		},
		{
			"buffer":0,
			"byteLength":3672,
			"byteOffset":46616,
			"target":34963
		},
		{
			"buffer":0,
			"byteLength":1896,
			"byteOffset":50288,
			"target":34962
		},
		{
			"buffer":0,
			"byteLength":1896,
			"byteOffset":52184,
			"target":34962
		},
		{
			"buffer":0,
			"byteLength":1264,
			"byteOffset":54080,
			"target":34962
		},
		{
			"buffer":0,
			"byteLength":972,
			"byteOffset":55344,
			"target":34963
		},
		{
			"buffer":0,
			"byteLength":96,
			"byteOffset":56316
		},
		{
			"buffer":0,
			"byteLength":288,
			"byteOffset":56412
		},
		{
			"buffer":0,
			"byteLength":384,
			"byteOffset":56700
		},
		{
			"buffer":0,
			"byteLength":288,
			"byteOffset":57084
		},
		{
			"buffer":0,
			"byteLength":384,
			"byteOffset":57372
		},
		{
			"buffer":0,
			"byteLength":4,
			"byteOffset":57756
		},
		{
			"buffer":0,
			"byteLength":12,
			"byteOffset":57760
		},
		{
			"buffer":0,
			"byteLength":16,
			"byteOffset":57772
		}
	],
	"samplers":[
		{
			"magFilter":9729,
			"minFilter":9987
		}
	],
	"buffers":[
		{
			"byteLength":57788,
			"uri":"rx7_lights.bin"
		}
	]
}
