{
	"asset":{
		"generator":"Khronos glTF Blender I/O v4.5.48",
		"version":"2.0"
	},
	"scene":0,
	"scenes":[
		{
			"name":"Scene",
			"nodes":[
				5
			]
		}
	],
	"nodes":[
		{
			"mesh":0,
			"name":"Object_14"
		},
		{
			"mesh":1,
			"name":"Object_15"
		},
		{
			"mesh":2,
			"name":"Object_16"
		},
		{
			"mesh":3,
			"name":"Object_17"
		},
		{
			"children":[
				0,
				1,
				2,
				3
			],
			"name":"LOD_A_BRAKE_CALIPER_FRONT_LEFT_mm_misc.001_2",
			"rotation":[
				-1,
				0,
				0,
				2.186525733804956e-07
			],
			"scale":[
				1.0528380870819092,
				1.0528380870819092,
				1.0528380870819092
			],
			"translation":[
				0.8494950532913208,
				1.116274118423462,
				0.31874048709869385
			]
		},
		{
			"children":[
				4
			],
			"name":"Sketchfab_model",
			"rotation":[
				-0.70710688829422,
				0,
				0,
				0.7071066498756409
			]
		}
	],
	"animations":[
		{
			"channels":[
				{
					"sampler":0,
					"target":{
						"node":2,
						"path":"rotation"
					}
				}
			],
			"name":"Object_16Action",
			"samplers":[
				{
					"input":18,
					"interpolation":"LINEAR",
					"output":19
				}
			]
		},
		{
			"channels":[
				{
					"sampler":0,
					"target":{
						"node":3,
						"path":"rotation"
					}
				}
			],
			"name":"Object_17Action",
			"samplers":[
				{
					"input":18,
					"interpolation":"LINEAR",
					"output":19
				}
			]
		}
	],
	"materials":[
		{
			"doubleSided":true,
			"name":"Vehicle_Exterior_mm_misc",
			"pbrMetallicRoughness":{
				"baseColorTexture":{
					"index":0
				},
				"metallicFactor":0,
				"roughnessFactor":0.5
			}
		},
		{
			"doubleSided":true,
			"name":"Vehicle_Exterior_mm_rotor",
			"pbrMetallicRoughness":{
				"baseColorTexture":{
					"index":1
				},
				"metallicFactor":0,
				"roughnessFactor":0.5
			}
		},
		{
			"doubleSided":true,
			"name":"Vehicle_Exterior_mm_wheel",
			"pbrMetallicRoughness":{
				"baseColorTexture":{
					"index":2
				},
				"metallicFactor":0,
				"roughnessFactor":0.5
			}
		},
		{
			"doubleSided":true,
			"name":"Vehicle_Exterior_mm_tyre",
			"pbrMetallicRoughness":{
				"baseColorTexture":{
					"index":3
				},
				"metallicFactor":0,
				"roughnessFactor":0.5
			}
		}
	],
	"meshes":[
		{
			"name":"Object_8",
			"primitives":[
				{
					"attributes":{
						"POSITION":0,
						"NORMAL":1,
						"TEXCOORD_0":2
					},
					"indices":3,
					"material":0
				}
			]
		},
		{
			"name":"Object_9",
			"primitives":[
				{
					"attributes":{
						"POSITION":4,
						"NORMAL":5,
						"TEXCOORD_0":6
					},
					"indices":7,
					"material":1
				}
			]
		},
		{
			"name":"Object_10",
			"primitives":[
				{
					"attributes":{
						"POSITION":8,
						"NORMAL":9,
						"TEXCOORD_0":10,
						"COLOR_0":11,
						"COLOR_1":12
					},
					"indices":13,
					"material":2
				}
			]
		},
		{
			"name":"Object_11",
			"primitives":[
				{
					"attributes":{
						"POSITION":14,
						"NORMAL":15,
						"TEXCOORD_0":16
					},
					"indices":17,
					"material":3
				}
			]
		}
	],
	"textures":[
		{
			"sampler":0,
			"source":0
		},
		{
			"sampler":0,
			"source":1
		},
		{
			"sampler":0,
			"source":2
		},
		{
			"sampler":0,
			"source":3
		}
	],
	"images":[
		{
			"mimeType":"image/png",
			"name":"Vehicle_Exterior_mm_misc_baseColor",
			"uri":"textures/Vehicle_Exterior_mm_misc_baseColor.png"
		},
		{
			"mimeType":"image/png",
			"name":"Vehicle_Exterior_mm_rotor_baseColor",
			"uri":"textures/Vehicle_Exterior_mm_rotor_baseColor.png"
		},
		{
			"mimeType":"image/png",
			"name":"Vehicle_Exterior_mm_wheel_baseColor",
			"uri":"textures/Vehicle_Exterior_mm_wheel_baseColor.png"
		},
		{
			"mimeType":"image/png",
			"name":"Vehicle_Exterior_mm_tyre_baseColor",
			"uri":"textures/Vehicle_Exterior_mm_tyre_baseColor.png"
		}
	],
	"accessors":[
		{
			"bufferView":0,
			"componentType":5126,
			"count":49,
			"max":[
				-0.06300000101327896,
				-0.09640000015497208,
				0.09920000284910202
			],
			"min":[
				-0.16089999675750732,
				-0.17080000042915344,
				-0.10199999809265137
			],
			"type":"VEC3"
		},
		{
			"bufferView":1,
			"componentType":5126,
			"count":49,
			"type":"VEC3"
		},
		{
			"bufferView":2,
			"componentType":5126,
			"count":49,
			"type":"VEC2"
		},
		{
			"bufferView":3,
			"componentType":5123,
			"count":72,
			"type":"SCALAR"
		},
		{
			"bufferView":4,
			"componentType":5126,
			"count":69,
			"max":[
				-0.08110000193119049,
				0.15230000019073486,
				0.15119999647140503
			],
			"min":[
				-0.10490000247955322,
				-0.1550000011920929,
				-0.1509000062942505
			],
			"type":"VEC3"
		},
		{
			"bufferView":5,
			"componentType":5126,
			"count":69,
			"type":"VEC3"
		},
		{
			"bufferView":6,
			"componentType":5126,
			"count":69,
			"type":"VEC2"
		},
		{
			"bufferView":7,
			"componentType":5123,
			"count":156,
			"type":"SCALAR"
		},
		{
			"bufferView":8,
			"componentType":5126,
			"count":1937,
			"max":[
				0.00430000014603138,
				0.2305999994277954,
				0.23029999434947968
			],
			"min":[
				-0.2946000099182129,
				-0.2305999994277954,
				-0.23090000450611115
			],
			"type":"VEC3"
		},
		{
			"bufferView":9,
			"componentType":5126,
			"count":1937,
			"type":"VEC3"
		},
		{
			"bufferView":10,
			"componentType":5126,
			"count":1937,
			"type":"VEC2"
		},
		{
			"bufferView":11,
			"componentType":5121,
			"count":1937,
			"normalized":true,
			"type":"VEC4"
		},
		{
			"bufferView":12,
			"componentType":5123,
			"count":1937,
			"normalized":true,
			"type":"VEC4"
		},
		{
			"bufferView":13,
			"componentType":5123,
			"count":5208,
			"type":"SCALAR"
		},
		{
			"bufferView":14,
			"componentType":5126,
			"count":401,
			"max":[
				-0.002899999963119626,
				0.30090001225471497,
				0.30059999227523804
			],
			"min":[
				-0.2944999933242798,
				-0.30090001225471497,
				-0.3010999858379364
			],
			"type":"VEC3"
		},
		{
			"bufferView":15,
			"componentType":5126,
			"count":401,
			"type":"VEC3"
		},
		{
			"bufferView":16,
			"componentType":5126,
			"count":401,
			"type":"VEC2"
		},
		{
			"bufferView":17,
			"componentType":5123,
			"count":1296,
			"type":"SCALAR"
		},
		{
			"bufferView":18,
			"componentType":5126,
			"count":240,
			"max":[
				10
			],
			"min":[
				0.041666666666666664
			],
			"type":"SCALAR"
		},
		{
			"bufferView":19,
			"componentType":5126,
			"count":240,
			"type":"VEC4"
		}
	],
	"bufferViews":[
		{
			"buffer":0,
			"byteLength":588,
			"byteOffset":0,
			"target":34962
		},
		{
			"buffer":0,
			"byteLength":588,
			"byteOffset":588,
			"target":34962
		},
		{
			"buffer":0,
			"byteLength":392,
			"byteOffset":1176,
			"target":34962
		},
		{
			"buffer":0,
			"byteLength":144,
			"byteOffset":1568,
			"target":34963
		},
		{
			"buffer":0,
			"byteLength":828,
			"byteOffset":1712,
			"target":34962
		},
		{
			"buffer":0,
			"byteLength":828,
			"byteOffset":2540,
			"target":34962
		},
		{
			"buffer":0,
			"byteLength":552,
			"byteOffset":3368,
			"target":34962
		},
		{
			"buffer":0,
			"byteLength":312,
			"byteOffset":3920,
			"target":34963
		},
		{
			"buffer":0,
			"byteLength":23244,
			"byteOffset":4232,
			"target":34962
		},
		{
			"buffer":0,
			"byteLength":23244,
			"byteOffset":27476,
			"target":34962
		},
		{
			"buffer":0,
			"byteLength":15496,
			"byteOffset":50720,
			"target":34962
		},
		{
			"buffer":0,
			"byteLength":7748,
			"byteOffset":66216,
			"target":34962
		},
		{
			"buffer":0,
			"byteLength":15496,
			"byteOffset":73964,
			"target":34962
		},
		{
			"buffer":0,
			"byteLength":10416,
			"byteOffset":89460,
			"target":34963
		},
		{
			"buffer":0,
			"byteLength":4812,
			"byteOffset":99876,
			"target":34962
		},
		{
			"buffer":0,
			"byteLength":4812,
			"byteOffset":104688,
			"target":34962
		},
		{
			"buffer":0,
			"byteLength":3208,
			"byteOffset":109500,
			"target":34962
		},
		{
			"buffer":0,
			"byteLength":2592,
			"byteOffset":112708,
			"target":34963
		},
		{
			"buffer":0,
			"byteLength":960,
			"byteOffset":115300
		},
		{
			"buffer":0,
			"byteLength":3840,
			"byteOffset":116260
		}
	],
	"samplers":[
		{
			"magFilter":9729,
			"minFilter":9987
		}
	],
	"buffers":[
		{
			"byteLength":120100,
			"uri":"rx7_wheels.bin"
		}
	]
}
